<?xml version="1.0" encoding="utf-8"?>
<!-- Generator: Adobe Illustrator 25.0.1, SVG Export Plug-In . SVG Version: 6.00 Build 0)  -->
<svg version="1.1" id="Layer_1" xmlns="http://www.w3.org/2000/svg" xmlns:xlink="http://www.w3.org/1999/xlink" x="0px" y="0px"
	 viewBox="0 0 41.8 39.9" style="enable-background:new 0 0 41.8 39.9;" xml:space="preserve">
<style type="text/css">
	.st0{fill:#ED156A;}
	.st1{fill:#FFFFFF;}
</style>
<path class="st0" d="M6.6,1.4H19c1.9,0,3.5,1.6,3.5,3.5v12.4c0,1.9-1.6,3.5-3.5,3.5H6.6c-1.9,0-3.5-1.6-3.5-3.5V4.9
	C3.1,2.9,4.7,1.4,6.6,1.4z"/>
<path class="st1" d="M26.8,15.2H36c1.5,0,2.6,1.2,2.6,2.6v9.3c0,1.5-1.2,2.6-2.6,2.6h-9.3c-1.5,0-2.6-1.2-2.6-2.6v-9.3
	C24.1,16.4,25.3,15.2,26.8,15.2z"/>
<path class="st0" d="M14.5,26.6h6.2c1,0,1.8,0.8,1.8,1.8v6.2c0,1-0.8,1.8-1.8,1.8h-6.2c-1,0-1.8-0.8-1.8-1.8v-6.2
	C12.8,27.4,13.6,26.6,14.5,26.6z"/>
<path class="st1" d="M24.7,33.6h3.1c0.5,0,0.9,0.4,0.9,0.9v3.1c0,0.5-0.4,0.9-0.9,0.9h-3.1c-0.5,0-0.9-0.4-0.9-0.9v-3.1
	C23.8,34,24.2,33.6,24.7,33.6z"/>
</svg>
